<svg viewBox="0 0 1200 280" xmlns="http://www.w3.org/2000/svg">
  <defs>
    <linearGradient id="bg" x1="0%" y1="0%" x2="100%" y2="100%">
      <stop offset="0%" stop-color="#0A0D14"/>
      <stop offset="100%" stop-color="#151C29"/>
    </linearGradient>
    <linearGradient id="strip" x1="0%" y1="0%" x2="0%" y2="100%">
      <stop offset="0%" stop-color="#1B2333"/>
      <stop offset="100%" stop-color="#0A0D14"/>
    </linearGradient>
  </defs>

  <rect width="1200" height="280" fill="url(#bg)"/>

  <!-- film strip top/bottom bands -->
  <rect x="0" y="0" width="1200" height="34" fill="url(#strip)"/>
  <rect x="0" y="246" width="1200" height="34" fill="url(#strip)"/>
  <circle cx="24" cy="18" r="4" fill="#0A0D14" opacity="0.9"/><circle cx="52" cy="18" r="4" fill="#0A0D14" opacity="0.9"/><circle cx="80" cy="18" r="4" fill="#0A0D14" opacity="0.9"/><circle cx="108" cy="18" r="4" fill="#0A0D14" opacity="0.9"/><circle cx="136" cy="18" r="4" fill="#0A0D14" opacity="0.9"/><circle cx="164" cy="18" r="4" fill="#0A0D14" opacity="0.9"/><circle cx="192" cy="18" r="4" fill="#0A0D14" opacity="0.9"/><circle cx="220" cy="18" r="4" fill="#0A0D14" opacity="0.9"/><circle cx="248" cy="18" r="4" fill="#0A0D14" opacity="0.9"/><circle cx="276" cy="18" r="4" fill="#0A0D14" opacity="0.9"/><circle cx="304" cy="18" r="4" fill="#0A0D14" opacity="0.9"/><circle cx="332" cy="18" r="4" fill="#0A0D14" opacity="0.9"/><circle cx="360" cy="18" r="4" fill="#0A0D14" opacity="0.9"/><circle cx="388" cy="18" r="4" fill="#0A0D14" opacity="0.9"/><circle cx="416" cy="18" r="4" fill="#0A0D14" opacity="0.9"/><circle cx="444" cy="18" r="4" fill="#0A0D14" opacity="0.9"/><circle cx="472" cy="18" r="4" fill="#0A0D14" opacity="0.9"/><circle cx="500" cy="18" r="4" fill="#0A0D14" opacity="0.9"/><circle cx="528" cy="18" r="4" fill="#0A0D14" opacity="0.9"/><circle cx="556" cy="18" r="4" fill="#0A0D14" opacity="0.9"/><circle cx="584" cy="18" r="4" fill="#0A0D14" opacity="0.9"/><circle cx="612" cy="18" r="4" fill="#0A0D14" opacity="0.9"/><circle cx="640" cy="18" r="4" fill="#0A0D14" opacity="0.9"/><circle cx="668" cy="18" r="4" fill="#0A0D14" opacity="0.9"/><circle cx="696" cy="18" r="4" fill="#0A0D14" opacity="0.9"/><circle cx="724" cy="18" r="4" fill="#0A0D14" opacity="0.9"/><circle cx="752" cy="18" r="4" fill="#0A0D14" opacity="0.9"/><circle cx="780" cy="18" r="4" fill="#0A0D14" opacity="0.9"/><circle cx="808" cy="18" r="4" fill="#0A0D14" opacity="0.9"/><circle cx="836" cy="18" r="4" fill="#0A0D14" opacity="0.9"/><circle cx="864" cy="18" r="4" fill="#0A0D14" opacity="0.9"/><circle cx="892" cy="18" r="4" fill="#0A0D14" opacity="0.9"/><circle cx="920" cy="18" r="4" fill="#0A0D14" opacity="0.9"/><circle cx="948" cy="18" r="4" fill="#0A0D14" opacity="0.9"/><circle cx="976" cy="18" r="4" fill="#0A0D14" opacity="0.9"/><circle cx="1004" cy="18" r="4" fill="#0A0D14" opacity="0.9"/><circle cx="1032" cy="18" r="4" fill="#0A0D14" opacity="0.9"/><circle cx="1060" cy="18" r="4" fill="#0A0D14" opacity="0.9"/><circle cx="1088" cy="18" r="4" fill="#0A0D14" opacity="0.9"/><circle cx="1116" cy="18" r="4" fill="#0A0D14" opacity="0.9"/><circle cx="1144" cy="18" r="4" fill="#0A0D14" opacity="0.9"/><circle cx="1172" cy="18" r="4" fill="#0A0D14" opacity="0.9"/>
  <circle cx="24" cy="262" r="4" fill="#0A0D14" opacity="0.9"/><circle cx="52" cy="262" r="4" fill="#0A0D14" opacity="0.9"/><circle cx="80" cy="262" r="4" fill="#0A0D14" opacity="0.9"/><circle cx="108" cy="262" r="4" fill="#0A0D14" opacity="0.9"/><circle cx="136" cy="262" r="4" fill="#0A0D14" opacity="0.9"/><circle cx="164" cy="262" r="4" fill="#0A0D14" opacity="0.9"/><circle cx="192" cy="262" r="4" fill="#0A0D14" opacity="0.9"/><circle cx="220" cy="262" r="4" fill="#0A0D14" opacity="0.9"/><circle cx="248" cy="262" r="4" fill="#0A0D14" opacity="0.9"/><circle cx="276" cy="262" r="4" fill="#0A0D14" opacity="0.9"/><circle cx="304" cy="262" r="4" fill="#0A0D14" opacity="0.9"/><circle cx="332" cy="262" r="4" fill="#0A0D14" opacity="0.9"/><circle cx="360" cy="262" r="4" fill="#0A0D14" opacity="0.9"/><circle cx="388" cy="262" r="4" fill="#0A0D14" opacity="0.9"/><circle cx="416" cy="262" r="4" fill="#0A0D14" opacity="0.9"/><circle cx="444" cy="262" r="4" fill="#0A0D14" opacity="0.9"/><circle cx="472" cy="262" r="4" fill="#0A0D14" opacity="0.9"/><circle cx="500" cy="262" r="4" fill="#0A0D14" opacity="0.9"/><circle cx="528" cy="262" r="4" fill="#0A0D14" opacity="0.9"/><circle cx="556" cy="262" r="4" fill="#0A0D14" opacity="0.9"/><circle cx="584" cy="262" r="4" fill="#0A0D14" opacity="0.9"/><circle cx="612" cy="262" r="4" fill="#0A0D14" opacity="0.9"/><circle cx="640" cy="262" r="4" fill="#0A0D14" opacity="0.9"/><circle cx="668" cy="262" r="4" fill="#0A0D14" opacity="0.9"/><circle cx="696" cy="262" r="4" fill="#0A0D14" opacity="0.9"/><circle cx="724" cy="262" r="4" fill="#0A0D14" opacity="0.9"/><circle cx="752" cy="262" r="4" fill="#0A0D14" opacity="0.9"/><circle cx="780" cy="262" r="4" fill="#0A0D14" opacity="0.9"/><circle cx="808" cy="262" r="4" fill="#0A0D14" opacity="0.9"/><circle cx="836" cy="262" r="4" fill="#0A0D14" opacity="0.9"/><circle cx="864" cy="262" r="4" fill="#0A0D14" opacity="0.9"/><circle cx="892" cy="262" r="4" fill="#0A0D14" opacity="0.9"/><circle cx="920" cy="262" r="4" fill="#0A0D14" opacity="0.9"/><circle cx="948" cy="262" r="4" fill="#0A0D14" opacity="0.9"/><circle cx="976" cy="262" r="4" fill="#0A0D14" opacity="0.9"/><circle cx="1004" cy="262" r="4" fill="#0A0D14" opacity="0.9"/><circle cx="1032" cy="262" r="4" fill="#0A0D14" opacity="0.9"/><circle cx="1060" cy="262" r="4" fill="#0A0D14" opacity="0.9"/><circle cx="1088" cy="262" r="4" fill="#0A0D14" opacity="0.9"/><circle cx="1116" cy="262" r="4" fill="#0A0D14" opacity="0.9"/><circle cx="1144" cy="262" r="4" fill="#0A0D14" opacity="0.9"/><circle cx="1172" cy="262" r="4" fill="#0A0D14" opacity="0.9"/>

  <!-- converging source nodes -->
  <path d="M 73 58 C 156 58, 260 140.0, 308 140.0" fill="none" stroke="#C1443C" stroke-width="2" opacity="0.55"/><path d="M 73 116 C 156 116, 260 140.0, 308 140.0" fill="none" stroke="#E8B34C" stroke-width="2" opacity="0.55"/><path d="M 73 164 C 156 164, 260 140.0, 308 140.0" fill="none" stroke="#5B8AC1" stroke-width="2" opacity="0.55"/><path d="M 73 222 C 156 222, 260 140.0, 308 140.0" fill="none" stroke="#7BAE7F" stroke-width="2" opacity="0.55"/>
  <circle cx="66" cy="58" r="7" fill="#C1443C"/><circle cx="66" cy="116" r="7" fill="#E8B34C"/><circle cx="66" cy="164" r="7" fill="#5B8AC1"/><circle cx="66" cy="222" r="7" fill="#7BAE7F"/>
  <circle cx="330" cy="140.0" r="46" fill="none" stroke="#E8B34C" stroke-width="2" opacity="0.7"/>
  <polygon points="316,114.0 316,166.0 356,140.0" fill="#E8B34C"/>

  <!-- eyebrow tag -->
  <text x="524" y="58" font-family="Arial, Helvetica, sans-serif" font-weight="600" font-size="13" letter-spacing="4" fill="#E8B34C">SINGLE-FILE STREAMING INTERFACE</text>

  <!-- title -->
  <text x="518" y="150" font-family="Arial Narrow, Helvetica Neue, Arial, sans-serif" font-weight="700" font-size="76" letter-spacing="6" fill="#EDEAE3">XYNEMA</text>
  <text x="524" y="186" font-family="Arial, Helvetica, sans-serif" font-weight="400" font-size="19" letter-spacing="2" fill="#9AA3B2">ALL YOUR STREAMING SOURCES&#8212;ONE SCREEN</text>

  <!-- marquee light row -->
  <circle cx="640" cy="196" r="3.2" fill="#E8B34C"/><circle cx="654" cy="196" r="3.2" fill="#5B6478"/><circle cx="668" cy="196" r="3.2" fill="#5B6478"/><circle cx="682" cy="196" r="3.2" fill="#E8B34C"/><circle cx="696" cy="196" r="3.2" fill="#5B6478"/><circle cx="710" cy="196" r="3.2" fill="#5B6478"/><circle cx="724" cy="196" r="3.2" fill="#E8B34C"/><circle cx="738" cy="196" r="3.2" fill="#5B6478"/><circle cx="752" cy="196" r="3.2" fill="#5B6478"/><circle cx="766" cy="196" r="3.2" fill="#E8B34C"/><circle cx="780" cy="196" r="3.2" fill="#5B6478"/><circle cx="794" cy="196" r="3.2" fill="#5B6478"/><circle cx="808" cy="196" r="3.2" fill="#E8B34C"/><circle cx="822" cy="196" r="3.2" fill="#5B6478"/>
</svg>